<svg width="66" height="64" viewBox="0 0 66 64" fill="none" xmlns="http://www.w3.org/2000/svg">
<mask id="mask0_1996_2572" style="mask-type:luminance" maskUnits="userSpaceOnUse" x="2" y="2" width="62" height="60">
<path d="M2.80063 32C2.80063 35.4112 3.40651 38.6667 4.51135 41.7143C5.20633 45.5411 5.29543 47.2381 4.77865 49.8528C4.42225 51.7229 3.29959 52.9524 3.49561 54.7013C3.65599 56.2944 3.78073 57.2121 5.25979 58.7532C6.98834 60.4675 8.59214 60.3463 9.10893 60.4329C10.8909 60.6926 12.2096 59.7229 14.152 59.4805C17.1992 59.1169 19.4089 58.9091 24.3985 60.1212C24.4163 60.1212 24.4342 60.1212 24.452 60.1385C27.1606 60.9177 30.0297 61.3333 33.0056 61.3333C49.6852 61.3333 63.1928 48.2078 63.1928 32C63.1928 15.7922 49.6852 2.66666 33.0056 2.66666C16.326 2.66666 2.80063 15.7922 2.80063 32Z" fill="white"/>
</mask>
<g mask="url(#mask0_1996_2572)">
<path d="M-27.3865 32L32.97 -26.6667L93.3443 32L32.97 90.6493L-27.3865 32Z" fill="url(#paint0_linear_1996_2572)"/>
</g>
<path d="M39.2082 22.5122C39.2082 21.4212 38.2991 20.5208 37.1582 20.5208C36.0174 20.5208 35.1083 21.4039 35.1083 22.5122C35.1083 23.6031 36.0174 24.5035 37.1582 24.5035C38.2991 24.5035 39.2082 23.6031 39.2082 22.5122Z" fill="#FD71C8"/>
<path d="M19.7474 24.9165C18.6247 24.9165 17.5912 25.1416 16.7002 25.5745C15.5775 26.1632 15.4171 25.661 15.3102 25.5225C15.2033 25.384 15.2211 25.2281 14.6687 25.2281H12.7441C12.7441 25.2281 11.4433 25.1589 11.4967 26.0074C11.4967 26.0074 11.6036 28.7433 11.6036 30.4403V43.9294C11.6036 44.9684 12.3877 45.9035 13.4391 45.99C14.633 46.0939 15.6488 45.1762 15.6488 44.0333V40.7952C15.6488 40.3104 16.1656 39.9641 16.6111 40.1719C17.413 40.5182 18.3218 40.7087 19.2841 40.7087C22.7412 40.7087 26.4477 38.1805 26.4477 32.6048C26.4656 28.1545 23.6322 24.9165 19.7474 24.9165ZM18.8742 37.2801C17.413 37.2801 16.1656 36.345 15.7735 34.9424C15.7201 34.6654 15.6666 34.3883 15.6666 34.0939V31.739C15.6666 31.4792 15.7557 31.1329 15.8092 30.9078C16.2012 29.4186 17.5021 28.3797 18.9455 28.3797C21.3156 28.3797 22.3848 30.5615 22.3848 32.726C22.3848 35.5831 21.0661 37.2801 18.8742 37.2801ZM49.6495 24.9165C48.6515 24.9165 47.6893 25.1242 46.8517 25.5398C46.4953 25.713 45.6399 25.661 45.4261 25.5571C45.2123 25.4532 45.0697 25.2281 44.8024 25.2281H42.5214C42.0759 25.2281 41.7374 25.5918 41.7552 26.0247C41.8443 27.0636 41.8621 28.1545 41.8621 29.6784V38.4403C41.8799 39.1502 41.9512 39.1849 41.9512 39.1849C42.272 39.9468 43.163 40.4836 44.0718 40.4143C45.141 40.3277 45.9429 39.3926 45.9429 38.3364V31.4446C45.9429 31.0983 45.9963 30.752 46.0676 30.5442L46.0854 30.5095C46.4062 29.5052 47.3685 28.4836 48.7941 28.4836C50.4514 28.4836 51.2889 29.5918 51.2889 31.7909V38.4576C51.3424 40.1892 52.5898 40.4836 53.4986 40.4316C54.5678 40.345 55.3697 39.41 55.3697 38.3537V31.5139C55.3875 26.6481 52.2868 24.9165 49.6495 24.9165ZM37.1041 25.2281C36.2488 25.2281 35.0548 25.7303 35.0548 26.8558V38.4403C35.0548 40.068 36.2666 40.4143 37.1041 40.4143C38.2268 40.4143 39.1356 39.5312 39.1356 38.4403V27.2022C39.1356 26.1113 38.2268 25.2281 37.1041 25.2281ZM30.2078 18.8385C29.1564 18.8385 28.2832 19.6004 28.1763 20.6221V20.6567V38.5961V38.6307C28.2832 39.6524 29.1564 40.4143 30.2078 40.4143C31.3304 40.4143 32.2571 39.5312 32.2571 38.4403V20.8126C32.2571 19.7216 31.3483 18.8385 30.2078 18.8385Z" fill="white"/>
<defs>
<linearGradient id="paint0_linear_1996_2572" x1="5.34229" y1="58.8529" x2="52.9204" y2="9.88981" gradientUnits="userSpaceOnUse">
<stop stop-color="#2982F8"/>
<stop offset="0.3295" stop-color="#10BCDF"/>
<stop offset="0.6006" stop-color="#05D7D3"/>
<stop offset="1" stop-color="#00E2CE"/>
</linearGradient>
</defs>
</svg>
