<svg width="46" height="40" viewBox="0 0 46 40" fill="none" xmlns="http://www.w3.org/2000/svg">
<rect x="1.29785" y="0.5" width="43.4444" height="39" rx="3.5" fill="white"/>
<rect x="1.29785" y="0.5" width="43.4444" height="39" rx="3.5" stroke="black"/>
<path d="M21.8112 19.671V24.0182H20.4346V13.2832H24.0842C25.0091 13.2832 25.7979 13.5922 26.4432 14.2101C27.1028 14.8281 27.4327 15.5825 27.4327 16.4735C27.4327 17.3861 27.1028 18.1405 26.4432 18.7513C25.805 19.3621 25.0163 19.6639 24.0842 19.6639H21.8112V19.671ZM21.8112 14.6053V18.3489H24.1129C24.6578 18.3489 25.1167 18.1621 25.4752 17.7956C25.8409 17.4292 26.0273 16.9837 26.0273 16.4807C26.0273 15.9849 25.8409 15.5466 25.4752 15.1802C25.1167 14.7993 24.665 14.6125 24.1129 14.6125H21.8112V14.6053Z" fill="#3C4043"/>
<path d="M31.0319 16.4304C32.05 16.4304 32.8531 16.7035 33.4411 17.2496C34.029 17.7956 34.323 18.5429 34.323 19.4914V24.0182H33.0108V22.9979H32.9535C32.387 23.8386 31.627 24.2553 30.6805 24.2553C29.8703 24.2553 29.1963 24.0182 28.6514 23.5368C28.1065 23.0554 27.834 22.459 27.834 21.7404C27.834 20.9788 28.1208 20.3752 28.6944 19.9297C29.268 19.477 30.0352 19.2543 30.9889 19.2543C31.8063 19.2543 32.4803 19.4052 33.0037 19.707V19.3908C33.0037 18.9094 32.8173 18.507 32.4372 18.1693C32.0572 17.8316 31.6127 17.6663 31.1036 17.6663C30.3364 17.6663 29.7269 17.9897 29.2824 18.6435L28.0706 17.8819C28.7374 16.9118 29.7269 16.4304 31.0319 16.4304ZM29.2537 21.762C29.2537 22.1213 29.4043 22.4231 29.7126 22.6602C30.0137 22.8973 30.3722 23.0195 30.7809 23.0195C31.3617 23.0195 31.878 22.8039 32.3297 22.3728C32.7814 21.9416 33.0108 21.4387 33.0108 20.8566C32.5806 20.5189 31.9855 20.3465 31.2183 20.3465C30.659 20.3465 30.193 20.483 29.8201 20.7489C29.4401 21.0291 29.2537 21.3668 29.2537 21.762Z" fill="#3C4043"/>
<path d="M41.8094 16.6676L37.2205 27.2445H35.8008L37.5073 23.5441L34.4814 16.6676H35.98L38.1597 21.9417H38.1884L40.3108 16.6676H41.8094Z" fill="#3C4043"/>
<path d="M16.3355 18.7945C16.3355 18.3447 16.2953 17.9142 16.2207 17.5004H10.4502V19.8716L13.7736 19.8723C13.6388 20.6612 13.205 21.3338 12.5403 21.7822V23.3206H14.5186C15.6737 22.2492 16.3355 20.6655 16.3355 18.7945Z" fill="#4285F4"/>
<path d="M12.5408 21.7821C11.9901 22.1543 11.281 22.3721 10.4514 22.3721C8.84886 22.3721 7.4894 21.2899 7.00254 19.8313H4.96191V21.4178C5.97291 23.4283 8.05082 24.8079 10.4514 24.8079C12.1106 24.8079 13.5045 24.2611 14.519 23.3198L12.5408 21.7821Z" fill="#34A853"/>
<path d="M6.81027 18.6542C6.81027 18.2447 6.87838 17.8488 7.00243 17.4766V15.89H4.9618C4.54377 16.7214 4.30859 17.6598 4.30859 18.6542C4.30859 19.6487 4.54449 20.5871 4.9618 21.4185L7.00243 19.8319C6.87838 19.4597 6.81027 19.0638 6.81027 18.6542Z" fill="#FABB05"/>
<path d="M10.4514 14.9359C11.357 14.9359 12.1679 15.2484 12.8082 15.8592L14.5613 14.1038C13.4966 13.11 12.1084 12.5 10.4514 12.5C8.05154 12.5 5.97291 13.8796 4.96191 15.8901L7.00254 17.4766C7.4894 16.018 8.84886 14.9359 10.4514 14.9359Z" fill="#E94235"/>
</svg>
