<svg width="65" height="64" viewBox="0 0 65 64" fill="none" xmlns="http://www.w3.org/2000/svg">
<path d="M51.1335 42.6861C48.3756 42.8881 45.6176 43.1038 42.865 43.3588C41.1749 43.5146 39.4937 43.7508 37.7258 43.9614C37.9114 42.7631 38.0829 41.6522 38.2685 40.4574C38.5054 40.6217 38.6256 40.7056 38.7476 40.7895C40.4465 41.9535 42.073 41.7994 43.4555 40.3085C44.5215 39.1582 45.0926 37.746 45.5399 36.2927C46.2488 33.9853 46.7314 31.6487 46.0685 29.2437C45.4921 27.1503 43.3919 26.6179 41.7672 28.1414C41.4419 28.4461 41.1095 28.7422 40.8266 29.0007C40.7542 28.7542 40.7595 28.4033 40.5809 28.2321C39.7942 27.4789 38.5054 27.8555 38.2968 28.8791C37.6957 31.8165 37.1247 34.759 36.4953 37.6912C36.4175 38.0541 36.1099 38.4067 35.8235 38.6772C35.6343 38.8552 35.2896 38.8792 35.0156 38.9733C34.9166 38.6857 34.7062 38.3845 34.7398 38.1123C34.8635 37.0733 35.0368 36.0394 35.2454 35.0123C35.6113 33.2218 36.0286 31.4416 36.3981 29.6528C36.5324 29.0041 36.2584 28.5933 35.5495 28.4255C34.5488 28.1893 34.3703 28.2595 33.725 29.3807C31.9783 28.3861 30.7178 28.5556 29.2858 29.9883C28.0677 31.2071 27.3252 32.6946 26.7471 34.266C25.9498 36.4331 25.5255 38.6395 26.0824 40.9333C26.3281 41.9483 26.8868 42.6981 27.9793 43.0079C29.1497 43.34 30.122 43.0216 30.9264 42.1948C31.2835 41.8285 31.5576 41.3886 31.9005 40.9418C32.1304 41.7515 32.6271 42.39 33.4916 42.3386C34.2465 42.2924 34.982 41.9449 35.7386 41.7258C35.6131 42.3352 35.4275 42.972 35.3638 43.619C35.3073 44.201 35.0173 44.3688 34.464 44.4509C31.3808 44.9011 28.3029 45.3855 25.225 45.8648C24.2473 46.0172 23.275 46.1901 22.1859 46.3732C22.6332 44.8326 23.0451 43.429 23.4482 42.0237C24.5443 38.1996 25.6528 34.379 26.7224 30.5481C27.0017 29.5501 26.5686 29.1564 25.5308 29.3978C24.3074 29.6819 23.549 30.4317 23.1265 31.5923C22.2796 33.91 21.4116 36.2208 20.4499 38.494C20.1776 39.1376 19.6066 39.6991 19.0621 40.1835C18.8092 40.4078 18.1852 40.5276 17.9253 40.3787C17.6601 40.2263 17.5028 39.6717 17.5346 39.3122C17.5947 38.6156 17.7945 37.9257 17.9819 37.2462C18.3743 35.8374 18.8499 34.4475 19.1876 33.0267C19.4086 32.0989 18.6201 31.3612 17.5134 31.3098C16.7903 31.2756 16.5888 31.6145 16.5322 32.7032C16.5057 33.227 16.3837 33.7593 16.2228 34.2643C15.9806 35.0312 15.6111 35.7638 15.399 36.5375C14.9994 37.9942 14.5946 39.456 14.3471 40.9401C14.1667 42.0288 14.4107 43.1209 15.4785 43.7714C16.5552 44.427 17.6124 44.1531 18.5706 43.4667C19.1063 43.0815 19.5942 42.633 20.1917 42.1401C19.6296 43.8039 19.1186 45.377 18.5547 46.9312C18.4733 47.1572 18.1622 47.3403 17.9165 47.4704C16.5534 48.1945 15.1037 48.7919 13.822 49.629C10.9244 51.5222 8.89665 54.0641 8.17534 57.4551C7.85712 58.9477 8.13999 60.2983 9.42171 61.2791C10.7476 62.2925 12.1955 62.1282 13.6205 61.4589C14.9959 60.8118 15.9735 59.7266 16.8858 58.578C18.7438 56.2432 19.8187 53.5403 20.7469 50.7758C20.9254 50.2418 21.1941 49.9816 21.7528 49.8737C24.9332 49.2592 28.1066 48.6088 31.2871 47.9925C32.3354 47.7888 33.3979 47.6502 34.5117 47.4722C34.5294 47.8368 34.4728 48.1072 34.5683 48.3075C34.7468 48.6789 34.9484 49.1976 35.2666 49.3054C35.5831 49.4133 36.1523 49.1873 36.4334 48.9289C36.7552 48.631 36.9673 48.1534 37.0699 47.7186C37.1795 47.2479 37.4164 47.0802 37.8672 47.0237C40.7612 46.6659 43.6553 46.3013 46.5476 45.9299C48.266 45.7091 49.9914 45.5139 51.6957 45.2144C52.5726 45.0603 52.8554 44.3157 52.5071 43.518C52.2473 42.9189 51.754 42.6416 51.1317 42.6878L51.1335 42.6861ZM39.1242 38.0901C39.6563 36.1695 40.146 34.2352 40.7824 32.3471C41.0034 31.6915 41.532 31.0873 42.0465 30.5806C42.6547 29.9815 43.2681 30.192 43.4803 31.0017C43.5916 31.4211 43.6129 31.8627 43.6482 32.1041C43.5527 34.0794 43.0171 35.7484 42.218 37.3283C41.7495 38.2561 41.0423 38.9904 39.8172 38.8877C39.3239 38.8467 38.9704 38.6395 39.1224 38.0901H39.1242ZM33.2689 32.1965C32.613 34.3328 31.8935 36.4519 31.1757 38.5711C31.0855 38.8381 30.884 39.0846 30.6824 39.2951C30.1592 39.8429 29.3866 39.7761 29.0684 39.1034C28.8138 38.5659 28.7219 37.9548 28.6052 37.544C28.8969 35.4095 29.3371 33.5471 30.884 32.152C31.2747 31.7994 31.7856 31.5323 32.2895 31.3492C32.9135 31.1215 33.4598 31.5768 33.2689 32.1982V32.1965ZM13.6293 57.7221C13.2757 58.1244 12.8444 58.4907 12.3776 58.7594C12.0948 58.922 11.5467 59.0179 11.3505 58.8656C11.1048 58.6738 10.9368 58.1552 11.0164 57.8471C11.2055 57.1264 11.4848 56.4041 11.8649 55.7587C13.1078 53.6499 14.9093 52.1213 17.3843 51.0292C16.4031 53.5728 15.3159 55.8101 13.6293 57.7238V57.7221ZM49.53 35.4899C49.6219 35.0431 49.8518 34.8429 50.3627 34.7419C53.2532 34.1667 55.4931 31.8901 55.9987 29.1034C56.3187 27.3454 55.2633 26.077 53.4229 26.0034C52.417 25.964 51.5295 26.267 50.7958 26.9226C47.8876 29.5227 46.7456 32.8675 46.4433 36.5495C46.5104 37.164 46.544 37.7511 46.6448 38.3246C46.9984 40.3239 48.6036 41.3338 50.6243 40.8357C52.3445 40.4129 53.6828 39.4098 54.8832 38.1893C55.6841 37.3728 55.7795 36.9945 55.3128 35.9829C54.9239 35.1373 54.565 35.1236 53.8773 35.786C53.2231 36.416 52.5107 37.0048 51.7523 37.5098C51.1936 37.8812 50.4829 38.1363 49.8518 37.6655C49.2029 37.1811 49.3585 36.4468 49.4398 35.7689C49.4504 35.6748 49.5088 35.5858 49.5282 35.4899H49.53ZM51.9874 29.141C52.2473 28.749 52.7599 28.3742 53.1789 28.7148C53.4282 28.9168 53.4866 29.5844 53.3504 29.9421C52.8519 31.2431 51.7505 31.9141 50.4422 32.2924C50.3521 32.229 50.2619 32.164 50.17 32.1006C50.7711 31.1113 51.3456 30.1047 51.9874 29.141Z" fill="#5F0B72"/>
<path d="M36.5547 2C30.7563 2 26.0555 6.98669 26.0555 13.1378C26.0555 16.0729 27.1288 18.7418 28.8781 20.7324L28.6307 25.453C28.608 25.8818 29.0593 26.1516 29.3938 25.9077L32.699 23.4975C33.8942 23.9984 35.1939 24.2775 36.5564 24.2775C42.3548 24.2775 47.0555 19.2908 47.0555 13.1397C47.0555 6.98854 42.3548 2.00185 36.5564 2.00185L36.5547 2ZM37.3195 17.5663C37.053 18.0487 36.6836 18.4221 36.2236 18.6753C35.7689 18.9248 35.2166 19.0505 34.5841 19.0505C33.5928 19.0505 32.7896 18.7363 32.1954 18.1153C31.5996 17.4942 31.2877 16.6496 31.265 15.6016C31.265 15.596 31.2476 15.3853 31.394 15.2079C31.5072 15.0693 31.6797 14.9972 31.9045 14.9898C32.1675 14.9861 32.3731 15.0471 32.5003 15.182C32.5996 15.2855 32.6327 15.4131 32.631 15.4981C32.6763 15.9565 32.7808 16.3372 32.9411 16.5978C33.0979 16.8547 33.3297 17.0673 33.6259 17.2262C33.9273 17.387 34.2723 17.4684 34.6538 17.4684C35.1974 17.4684 35.6191 17.3353 35.9083 17.071C36.1923 16.8122 36.3299 16.4851 36.3299 16.0692C36.3299 15.8271 36.2811 15.6238 36.1801 15.4482C36.0808 15.2744 35.9257 15.1284 35.7201 15.0138C35.4919 14.8863 34.9761 14.7015 34.1921 14.4612C33.4481 14.2338 32.9289 14.0084 32.6049 13.7699C32.2756 13.5297 32.0142 13.2191 31.8313 12.8476C31.6483 12.4761 31.5543 12.0547 31.5543 11.5908C31.5543 10.7591 31.8208 10.0678 32.3453 9.53734C32.8662 9.00873 33.5736 8.74072 34.4465 8.74072C35.0406 8.74072 35.5703 8.86456 36.0215 9.11038C36.478 9.3599 36.8387 9.72032 37.0913 10.1861C37.3404 10.6463 37.4763 11.1897 37.4938 11.8052C37.4938 11.8218 37.5042 12.0492 37.3474 12.2321C37.2708 12.3227 37.1227 12.4336 36.8683 12.441C36.6035 12.4521 36.3996 12.3856 36.2637 12.2488C36.1208 12.1065 36.1086 11.9401 36.1086 11.9087C36.0633 11.3616 35.9048 10.9476 35.6382 10.6888C35.3699 10.4301 34.9796 10.2988 34.4778 10.2988C33.9761 10.2988 33.5701 10.4134 33.3122 10.6408C33.0613 10.8607 32.9394 11.1361 32.9394 11.4873C32.9394 11.8107 33.0248 12.051 33.199 12.2192C33.3314 12.3486 33.6799 12.5556 34.5876 12.8144C35.3542 13.0325 35.8821 13.2191 36.201 13.3855C36.6958 13.6461 37.0774 13.9973 37.3317 14.4261C37.5879 14.8567 37.7185 15.3742 37.7185 15.9639C37.7185 16.5535 37.5844 17.0858 37.3178 17.5682L37.3195 17.5663ZM43.5692 10.3949L39.5096 18.2299C39.3807 18.4794 39.1333 18.6346 38.865 18.6346C38.7413 18.6346 38.6193 18.6014 38.5113 18.5385C38.1558 18.3315 38.0269 17.8565 38.2203 17.4795L42.2799 9.64454C42.475 9.26934 42.9228 9.13071 43.2782 9.33587C43.6337 9.54288 43.7626 10.0179 43.5674 10.3949H43.5692Z" fill="#01D0B5"/>
</svg>
