<svg width="139" height="56" viewBox="0 0 139 56" fill="none" xmlns="http://www.w3.org/2000/svg">
<ellipse cx="25.3077" cy="28" rx="25.3146" ry="25.2459" fill="#35BFAE"/>
<ellipse cx="110.917" cy="28" rx="28.0762" ry="28" fill="#C3D600"/>
<ellipse cx="59.3672" cy="28" rx="20.7119" ry="20.6557" fill="#E74481"/>
<path d="M30.3125 14.6885C31.2698 14.6885 32.2443 14.7359 33.1172 15.129C34.8521 15.9103 36.9896 17.7074 37.2744 21.1143C37.6426 25.5208 34.3595 27.541 32.6719 28.0001C37.8264 28.7345 38.1953 32.3454 38.1953 34.4258C38.1953 39.9535 32.6719 41.3115 28.0693 41.3116H16.5625V14.6885H30.3125ZM23.0059 30.295V36.2628H28.9893C29.4495 36.2628 32.2119 35.803 32.2119 33.5079C32.2117 31.213 30.37 30.295 28.9893 30.295H23.0059ZM23.0059 25.7051H28.0693C29.1433 25.7051 31.2908 25.154 31.291 22.9512C31.291 20.7481 29.1433 19.8904 28.0693 19.7374H23.0059V25.7051Z" fill="white"/>
<path d="M57.9863 39.9345V24.7869C62.7731 23.6853 63.6629 27.082 63.5095 28.9181V39.9345H57.9863Z" fill="white"/>
<ellipse cx="60.748" cy="19.2787" rx="3.68212" ry="3.67213" fill="white"/>
<path d="M92.9668 39.4754V17.9016C94.6544 17.4426 99.1343 16.5246 103.553 16.5246C107.971 16.5246 110.61 17.4426 111.377 17.9016C111.838 17.4426 114.507 16.5246 121.503 16.5246C128.499 16.5246 130.248 21.4208 130.248 23.8689V39.4754H123.344V26.623C123.344 24.4197 121.196 23.5628 120.122 23.4098H115.06V39.4754H108.156V26.623C108.156 24.4197 106.008 23.5628 104.934 23.4098H99.8708V39.4754H92.9668Z" fill="white"/>
</svg>
