<svg width="65" height="64" viewBox="0 0 65 64" fill="none" xmlns="http://www.w3.org/2000/svg">
<g clip-path="url(#clip0_1996_2557)">
<path fill-rule="evenodd" clip-rule="evenodd" d="M18.3139 55.9432V30.5438L64.9444 30.5836V37.6005L59.5511 43.1867L64.9444 48.8184V55.9829H56.3362L51.7686 51.0949L47.2245 56.0056L18.3139 55.9432Z" fill="white"/>
<path fill-rule="evenodd" clip-rule="evenodd" d="M21.4292 53.1614V33.337H38.7627V37.907H27.0392V41.0011H38.4816V45.4917H27.0392V48.5403H38.7627V53.1614H21.4292Z" fill="#016FCE"/>
<path fill-rule="evenodd" clip-rule="evenodd" d="M38.6749 53.1614L48.2668 43.2378L38.6749 33.337H46.1001L51.9619 39.6215L57.8412 33.337H64.9444V33.4959L55.5574 43.2378L64.9444 52.8776V53.1614H57.7651L51.8038 46.8144L45.901 53.1614H38.6749Z" fill="#016FCE"/>
<path fill-rule="evenodd" clip-rule="evenodd" d="M20.4864 8H31.7297L35.6766 16.6917V8H49.5551L51.9443 14.5117L54.3452 8H64.9444V33.3994H8.94443L20.4864 8Z" fill="white"/>
<path fill-rule="evenodd" clip-rule="evenodd" d="M22.618 10.7591L13.5472 30.5609H19.7661L21.4819 26.5869H30.7518L32.4617 30.5609H38.8388L29.8032 10.7591H22.618ZM23.3968 22.1531L26.1198 15.8515L28.8369 22.1531H23.3968Z" fill="#016FCE"/>
<path fill-rule="evenodd" clip-rule="evenodd" d="M38.751 30.5608V10.7591L47.4997 10.7874L51.997 22.9592L56.5295 10.7591H64.9444V30.5608L59.5277 30.6063V17.0039L54.4155 30.5608H49.4731L44.2555 16.9585V30.5608H38.751Z" fill="#016FCE"/>
</g>
<defs>
<clipPath id="clip0_1996_2557">
<rect width="56" height="48" fill="white" transform="translate(8.94443 8)"/>
</clipPath>
</defs>
</svg>
