<svg width="65" height="64" viewBox="0 0 65 64" fill="none" xmlns="http://www.w3.org/2000/svg">
<path d="M39.9809 17.1927H24.1229V45.5796H39.9809V17.1927Z" fill="#FF5F00"/>
<path d="M25.1299 31.3866C25.1274 28.6527 25.7493 25.9541 26.9486 23.4951C28.1479 21.036 29.8931 18.881 32.052 17.1931C29.3785 15.0998 26.1676 13.798 22.7863 13.4365C19.4051 13.0749 15.99 13.6683 12.9313 15.1488C9.87267 16.6293 7.29386 18.9372 5.48968 21.8086C3.68549 24.68 2.72874 27.9991 2.72874 31.3866C2.72874 34.774 3.68549 38.0931 5.48968 40.9645C7.29386 43.836 9.87267 46.1438 12.9313 47.6243C15.99 49.1048 19.4051 49.6982 22.7863 49.3367C26.1676 48.9752 29.3785 47.6734 32.052 45.58C29.8931 43.8921 28.1479 41.7371 26.9487 39.2781C25.7494 36.819 25.1274 34.1204 25.1299 31.3866Z" fill="#EB001B"/>
<path d="M61.3953 31.3866C61.3954 34.774 60.4387 38.0931 58.6346 40.9645C56.8305 43.8359 54.2518 46.1437 51.1932 47.6243C48.1346 49.1048 44.7196 49.6982 41.3384 49.3367C37.9572 48.9752 34.7464 47.6734 32.0728 45.58C34.2299 43.8904 35.9737 41.7351 37.1728 39.2764C38.3719 36.8178 38.9949 34.12 38.9949 31.3866C38.9949 28.6531 38.3719 25.9554 37.1728 23.4967C35.9737 21.0381 34.2299 18.8827 32.0728 17.1931C34.7464 15.0998 37.9572 13.7979 41.3384 13.4364C44.7196 13.0749 48.1346 13.6684 51.1932 15.1489C54.2518 16.6294 56.8305 18.9372 58.6346 21.8086C60.4387 24.6801 61.3954 27.9992 61.3953 31.3866Z" fill="#F79E1B"/>
<path d="M59.6452 42.574V41.9928H59.8804V41.8744H59.2813V41.9928H59.5166V42.574H59.6452ZM60.8083 42.574V41.8733H60.6247L60.4135 42.3553L60.2022 41.8733H60.0184V42.574H60.1481V42.0454L60.3462 42.5011H60.4807L60.6788 42.0443V42.574H60.8083Z" fill="#F79E1B"/>
</svg>
