<svg width="65" height="64" viewBox="0 0 65 64" fill="none" xmlns="http://www.w3.org/2000/svg">
<path d="M25.0355 21.6652L17.3396 39.9156H12.3206L8.52849 25.4259C8.30542 24.541 8.08235 24.2092 7.41315 23.8773C6.29782 23.2137 4.40175 22.6607 2.72874 22.3288L2.84027 21.7758H10.8707C11.8745 21.7758 12.8783 22.4394 13.1014 23.6561L15.109 34.1639L20.0165 21.7758H25.0355V21.6652ZM44.6654 33.9427C44.6654 29.1865 37.9734 28.8547 37.9734 26.7532C37.9734 26.0895 38.6426 25.4259 39.981 25.2046C40.6502 25.094 42.5462 25.094 44.6654 25.9789L45.4461 22.1076C44.3308 21.6652 42.8808 21.3333 40.9848 21.3333C36.3003 21.3333 32.9543 23.7667 32.9543 27.3062C32.9543 29.9608 35.2965 31.3987 37.0811 32.2836C38.9772 33.1684 39.5348 33.7215 39.5348 34.4957C39.5348 35.7124 38.0849 36.2655 36.7465 36.2655C34.4043 36.2655 32.9543 35.6018 31.839 35.1594L30.9467 39.1413C32.0621 39.6943 34.0697 40.1368 36.1888 40.1368C41.4309 40.1368 44.6654 37.7034 44.6654 33.9427ZM57.0456 39.805H61.3954L57.6033 21.5546H53.5881C52.6958 21.5546 51.9151 22.1076 51.5805 22.8819L44.4423 39.6943H49.4613L50.4651 36.9291H56.5995L57.0456 39.805ZM51.8035 33.3897L54.2573 26.5319L55.7072 33.3897H51.8035ZM31.839 21.6652L27.9353 39.9156H23.1394L27.0431 21.6652H31.839Z" fill="#1F49B6"/>
</svg>
