<svg width="66" height="64" viewBox="0 0 66 64" fill="none" xmlns="http://www.w3.org/2000/svg">
<g clip-path="url(#clip0_1996_2548)">
<path d="M31.2767 8.00642H33.0033C32.4192 8.00002 31.8415 8.00002 31.2767 8.00642Z" fill="#C3007B"/>
<path d="M33.0033 55.3818H30.2819C31.1676 55.4138 32.0726 55.4202 33.0033 55.3818Z" fill="#C3007B"/>
<path d="M29.5438 9.96704C25.2465 9.96577 21.0454 11.2367 17.4718 13.6191C13.8981 16.0015 11.1125 19.3884 9.46711 23.3513C7.82174 27.3143 7.39058 31.6754 8.22815 35.883C9.06572 40.0906 11.1344 43.9557 14.1726 46.9896C17.2107 50.0234 21.0819 52.0897 25.2965 52.9271C29.5111 53.7644 33.8798 53.3353 37.85 51.6939C41.8203 50.0526 45.2138 47.2727 47.6013 43.7059C49.9889 40.1391 51.2633 35.9455 51.2633 31.6557C51.2616 25.9051 48.9729 20.3905 44.9003 16.3236C40.8277 12.2568 35.3042 9.97044 29.5438 9.96704ZM24.6081 44.4766C22.0139 43.4799 19.7831 41.722 18.2096 39.4344C16.6362 37.1468 15.794 34.437 15.794 31.6621C15.794 28.8871 16.6362 26.1773 18.2096 23.8897C19.7831 21.6022 22.0139 19.8442 24.6081 18.8475V44.4766ZM34.4666 44.4766V18.8475C37.0608 19.8442 39.2917 21.6022 40.8651 23.8897C42.4386 26.1773 43.2808 28.8871 43.2808 31.6621C43.2808 34.437 42.4386 37.1468 40.8651 39.4344C39.2917 41.722 37.0608 43.4799 34.4666 44.4766Z" fill="white"/>
<path d="M60.1525 35.4359C60.1525 35.3526 60.1846 35.2629 60.1975 35.1732C60.3646 34.0575 60.4505 32.9311 60.4542 31.803C60.4556 28.9576 59.9402 26.1354 58.9331 23.4736C55.4287 14.5034 46.0965 8.25629 33.0032 7.99359H31.2767C22.5158 8.17299 16.014 11.0563 11.7395 15.5221C7.96867 19.6464 5.78735 24.9734 5.58433 30.5536C5.58753 30.5941 5.58753 30.6348 5.58433 30.6753C5.58433 30.8419 5.58433 31.0149 5.58433 31.1815C5.58126 31.2349 5.58126 31.2883 5.58433 31.3417C5.58433 31.5083 5.58433 31.6749 5.58433 31.8415V31.9696C5.58433 32.1426 5.58433 32.3156 5.58433 32.4822C5.69707 36.0465 6.62286 39.5381 8.29118 42.6914C9.9595 45.8447 12.3264 48.5764 15.2117 50.6788C19.1269 53.4019 24.1974 55.1255 30.314 55.3433H33.0417C42.7269 54.9973 50.3069 51.5823 55.0243 46.2706C57.6739 43.1862 59.447 39.4493 60.159 35.4487L60.1525 35.4359ZM29.5438 53.3378C25.2463 53.3391 21.0449 52.068 17.4711 49.6853C13.8973 47.3026 11.1117 43.9154 9.46652 39.9521C7.82135 35.9887 7.39053 31.6273 8.22862 27.4196C9.06671 23.2118 11.136 19.3467 14.1749 16.3131C17.2137 13.2795 21.0854 11.2137 25.3004 10.377C29.5154 9.54039 33.8843 9.97044 37.8545 11.6128C41.8246 13.2552 45.2176 16.036 47.6044 19.6037C49.9912 23.1713 51.2645 27.3655 51.2632 31.6556C51.2615 37.4056 48.9727 42.9196 44.8999 46.9854C40.8271 51.0512 35.3036 53.3361 29.5438 53.3378Z" fill="#31579E"/>
<path d="M34.4666 18.8283V44.4574C37.0608 43.4607 39.2917 41.7027 40.8651 39.4151C42.4386 37.1276 43.2808 34.4178 43.2808 31.6428C43.2808 28.8679 42.4386 26.1581 40.8651 23.8705C39.2917 21.5829 37.0608 19.825 34.4666 18.8283Z" fill="#31579E"/>
<path d="M15.7702 31.6556C15.7765 34.4323 16.624 37.1422 18.2013 39.4292C19.7786 41.7163 22.012 43.4735 24.6081 44.4702V18.8411C22.013 19.8393 19.7806 21.5969 18.2035 23.8836C16.6264 26.1703 15.7783 28.8794 15.7702 31.6556Z" fill="#31579E"/>
</g>
<defs>
<clipPath id="clip0_1996_2548">
<rect width="54.902" height="47.4074" fill="white" transform="translate(5.55227 8)"/>
</clipPath>
</defs>
</svg>
